<mxfile host="app.diagrams.net" agent="Mozilla/5.0 (Windows NT 10.0; Win64; x64) AppleWebKit/537.36 (KHTML, like Gecko) Chrome/139.0.0.0 Safari/537.36" version="28.1.2">
  <diagram name="Page-1" id="PX9Q98Ve2dCXUsX-Kc8K">
    <mxGraphModel dx="1158" dy="638" grid="1" gridSize="10" guides="1" tooltips="1" connect="1" arrows="1" fold="1" page="1" pageScale="1" pageWidth="850" pageHeight="1100" math="0" shadow="0">
      <root>
        <mxCell id="0" />
        <mxCell id="1" parent="0" />
        <mxCell id="TdQm5-RAgIFoS7tEMjqO-1" value="Sign up" style="rounded=0;whiteSpace=wrap;html=1;" vertex="1" parent="1">
          <mxGeometry x="333" y="60" width="120" height="60" as="geometry" />
        </mxCell>
        <mxCell id="TdQm5-RAgIFoS7tEMjqO-2" value="Authentication" style="rounded=0;whiteSpace=wrap;html=1;" vertex="1" parent="1">
          <mxGeometry x="659" y="60" width="120" height="60" as="geometry" />
        </mxCell>
        <mxCell id="TdQm5-RAgIFoS7tEMjqO-3" value="Actor" style="shape=umlActor;verticalLabelPosition=bottom;verticalAlign=top;html=1;outlineConnect=0;" vertex="1" parent="1">
          <mxGeometry x="120" y="50" width="30" height="60" as="geometry" />
        </mxCell>
        <mxCell id="TdQm5-RAgIFoS7tEMjqO-13" style="edgeStyle=orthogonalEdgeStyle;rounded=0;orthogonalLoop=1;jettySize=auto;html=1;exitX=0.5;exitY=0;exitDx=0;exitDy=0;entryX=0.5;entryY=1;entryDx=0;entryDy=0;" edge="1" parent="1" source="TdQm5-RAgIFoS7tEMjqO-5" target="TdQm5-RAgIFoS7tEMjqO-8">
          <mxGeometry relative="1" as="geometry" />
        </mxCell>
        <mxCell id="TdQm5-RAgIFoS7tEMjqO-16" value="Enter Full Name" style="edgeLabel;html=1;align=center;verticalAlign=middle;resizable=0;points=[];" vertex="1" connectable="0" parent="TdQm5-RAgIFoS7tEMjqO-13">
          <mxGeometry x="-0.1613" y="2" relative="1" as="geometry">
            <mxPoint as="offset" />
          </mxGeometry>
        </mxCell>
        <mxCell id="TdQm5-RAgIFoS7tEMjqO-5" value="" style="rounded=0;whiteSpace=wrap;html=1;rotation=90;" vertex="1" parent="1">
          <mxGeometry x="102.5" y="220" width="65" height="30" as="geometry" />
        </mxCell>
        <mxCell id="TdQm5-RAgIFoS7tEMjqO-14" style="edgeStyle=orthogonalEdgeStyle;rounded=0;orthogonalLoop=1;jettySize=auto;html=1;exitX=0.5;exitY=0;exitDx=0;exitDy=0;entryX=0.5;entryY=1;entryDx=0;entryDy=0;" edge="1" parent="1" source="TdQm5-RAgIFoS7tEMjqO-6" target="TdQm5-RAgIFoS7tEMjqO-9">
          <mxGeometry relative="1" as="geometry" />
        </mxCell>
        <mxCell id="TdQm5-RAgIFoS7tEMjqO-17" value="Enter Address" style="edgeLabel;html=1;align=center;verticalAlign=middle;resizable=0;points=[];" vertex="1" connectable="0" parent="TdQm5-RAgIFoS7tEMjqO-14">
          <mxGeometry x="-0.2492" y="2" relative="1" as="geometry">
            <mxPoint as="offset" />
          </mxGeometry>
        </mxCell>
        <mxCell id="TdQm5-RAgIFoS7tEMjqO-6" value="" style="rounded=0;whiteSpace=wrap;html=1;rotation=90;" vertex="1" parent="1">
          <mxGeometry x="102.5" y="340" width="65" height="30" as="geometry" />
        </mxCell>
        <mxCell id="TdQm5-RAgIFoS7tEMjqO-15" style="edgeStyle=orthogonalEdgeStyle;rounded=0;orthogonalLoop=1;jettySize=auto;html=1;exitX=0.5;exitY=0;exitDx=0;exitDy=0;entryX=0.5;entryY=1;entryDx=0;entryDy=0;" edge="1" parent="1" source="TdQm5-RAgIFoS7tEMjqO-7" target="TdQm5-RAgIFoS7tEMjqO-10">
          <mxGeometry relative="1" as="geometry" />
        </mxCell>
        <mxCell id="TdQm5-RAgIFoS7tEMjqO-18" value="Enter Email" style="edgeLabel;html=1;align=center;verticalAlign=middle;resizable=0;points=[];" vertex="1" connectable="0" parent="TdQm5-RAgIFoS7tEMjqO-15">
          <mxGeometry x="-0.091" y="3" relative="1" as="geometry">
            <mxPoint as="offset" />
          </mxGeometry>
        </mxCell>
        <mxCell id="TdQm5-RAgIFoS7tEMjqO-7" value="" style="rounded=0;whiteSpace=wrap;html=1;rotation=90;" vertex="1" parent="1">
          <mxGeometry x="102.5" y="450" width="65" height="30" as="geometry" />
        </mxCell>
        <mxCell id="TdQm5-RAgIFoS7tEMjqO-8" value="" style="rounded=0;whiteSpace=wrap;html=1;rotation=90;fillColor=#a20025;fontColor=#ffffff;strokeColor=#6F0000;" vertex="1" parent="1">
          <mxGeometry x="360" y="220" width="65" height="30" as="geometry" />
        </mxCell>
        <mxCell id="TdQm5-RAgIFoS7tEMjqO-9" value="" style="rounded=0;whiteSpace=wrap;html=1;rotation=90;fillColor=#a20025;fontColor=#ffffff;strokeColor=#6F0000;" vertex="1" parent="1">
          <mxGeometry x="360" y="340" width="65" height="30" as="geometry" />
        </mxCell>
        <mxCell id="TdQm5-RAgIFoS7tEMjqO-10" value="" style="rounded=0;whiteSpace=wrap;html=1;rotation=90;fillColor=#a20025;fontColor=#ffffff;strokeColor=#6F0000;" vertex="1" parent="1">
          <mxGeometry x="360" y="450" width="65" height="30" as="geometry" />
        </mxCell>
        <mxCell id="TdQm5-RAgIFoS7tEMjqO-19" style="edgeStyle=orthogonalEdgeStyle;rounded=0;orthogonalLoop=1;jettySize=auto;html=1;exitX=0.5;exitY=0;exitDx=0;exitDy=0;entryX=0.5;entryY=1;entryDx=0;entryDy=0;" edge="1" source="TdQm5-RAgIFoS7tEMjqO-21" target="TdQm5-RAgIFoS7tEMjqO-22" parent="1">
          <mxGeometry relative="1" as="geometry" />
        </mxCell>
        <mxCell id="TdQm5-RAgIFoS7tEMjqO-20" value="Enter Password" style="edgeLabel;html=1;align=center;verticalAlign=middle;resizable=0;points=[];" vertex="1" connectable="0" parent="TdQm5-RAgIFoS7tEMjqO-19">
          <mxGeometry x="-0.091" y="3" relative="1" as="geometry">
            <mxPoint as="offset" />
          </mxGeometry>
        </mxCell>
        <mxCell id="TdQm5-RAgIFoS7tEMjqO-21" value="" style="rounded=0;whiteSpace=wrap;html=1;rotation=90;" vertex="1" parent="1">
          <mxGeometry x="102.5" y="590" width="65" height="30" as="geometry" />
        </mxCell>
        <mxCell id="TdQm5-RAgIFoS7tEMjqO-22" value="" style="rounded=0;whiteSpace=wrap;html=1;rotation=90;fillColor=#a20025;fontColor=#ffffff;strokeColor=#6F0000;" vertex="1" parent="1">
          <mxGeometry x="360" y="590" width="65" height="30" as="geometry" />
        </mxCell>
        <mxCell id="TdQm5-RAgIFoS7tEMjqO-23" value="" style="endArrow=none;dashed=1;html=1;rounded=0;" edge="1" parent="1">
          <mxGeometry width="50" height="50" relative="1" as="geometry">
            <mxPoint x="134.5" y="202" as="sourcePoint" />
            <mxPoint x="134.5" y="142" as="targetPoint" />
          </mxGeometry>
        </mxCell>
        <mxCell id="TdQm5-RAgIFoS7tEMjqO-24" value="" style="endArrow=none;dashed=1;html=1;rounded=0;" edge="1" parent="1">
          <mxGeometry width="50" height="50" relative="1" as="geometry">
            <mxPoint x="134.5" y="320" as="sourcePoint" />
            <mxPoint x="135" y="270" as="targetPoint" />
          </mxGeometry>
        </mxCell>
        <mxCell id="TdQm5-RAgIFoS7tEMjqO-25" value="" style="endArrow=none;dashed=1;html=1;rounded=0;" edge="1" parent="1">
          <mxGeometry width="50" height="50" relative="1" as="geometry">
            <mxPoint x="134.5" y="430" as="sourcePoint" />
            <mxPoint x="135" y="390" as="targetPoint" />
          </mxGeometry>
        </mxCell>
        <mxCell id="TdQm5-RAgIFoS7tEMjqO-26" value="" style="endArrow=none;dashed=1;html=1;rounded=0;" edge="1" parent="1">
          <mxGeometry width="50" height="50" relative="1" as="geometry">
            <mxPoint x="133.5" y="570" as="sourcePoint" />
            <mxPoint x="133" y="498" as="targetPoint" />
          </mxGeometry>
        </mxCell>
        <mxCell id="TdQm5-RAgIFoS7tEMjqO-28" style="edgeStyle=orthogonalEdgeStyle;rounded=0;orthogonalLoop=1;jettySize=auto;html=1;exitX=0.5;exitY=0;exitDx=0;exitDy=0;entryX=0.5;entryY=1;entryDx=0;entryDy=0;" edge="1" source="TdQm5-RAgIFoS7tEMjqO-30" target="TdQm5-RAgIFoS7tEMjqO-31" parent="1">
          <mxGeometry relative="1" as="geometry" />
        </mxCell>
        <mxCell id="TdQm5-RAgIFoS7tEMjqO-29" value="Click Sign-up Button" style="edgeLabel;html=1;align=center;verticalAlign=middle;resizable=0;points=[];" vertex="1" connectable="0" parent="TdQm5-RAgIFoS7tEMjqO-28">
          <mxGeometry x="-0.091" y="3" relative="1" as="geometry">
            <mxPoint as="offset" />
          </mxGeometry>
        </mxCell>
        <mxCell id="TdQm5-RAgIFoS7tEMjqO-30" value="" style="rounded=0;whiteSpace=wrap;html=1;rotation=90;" vertex="1" parent="1">
          <mxGeometry x="102.5" y="720" width="65" height="30" as="geometry" />
        </mxCell>
        <mxCell id="TdQm5-RAgIFoS7tEMjqO-40" style="edgeStyle=orthogonalEdgeStyle;rounded=0;orthogonalLoop=1;jettySize=auto;html=1;exitX=0.5;exitY=0;exitDx=0;exitDy=0;" edge="1" parent="1" source="TdQm5-RAgIFoS7tEMjqO-31">
          <mxGeometry relative="1" as="geometry">
            <mxPoint x="700" y="735" as="targetPoint" />
          </mxGeometry>
        </mxCell>
        <mxCell id="TdQm5-RAgIFoS7tEMjqO-41" value="Send User signup details" style="edgeLabel;html=1;align=center;verticalAlign=middle;resizable=0;points=[];" vertex="1" connectable="0" parent="TdQm5-RAgIFoS7tEMjqO-40">
          <mxGeometry x="-0.0805" relative="1" as="geometry">
            <mxPoint as="offset" />
          </mxGeometry>
        </mxCell>
        <mxCell id="TdQm5-RAgIFoS7tEMjqO-31" value="" style="rounded=0;whiteSpace=wrap;html=1;rotation=90;fillColor=#a20025;fontColor=#ffffff;strokeColor=#6F0000;" vertex="1" parent="1">
          <mxGeometry x="360" y="720" width="65" height="30" as="geometry" />
        </mxCell>
        <mxCell id="TdQm5-RAgIFoS7tEMjqO-33" value="" style="endArrow=none;dashed=1;html=1;rounded=0;" edge="1" parent="1">
          <mxGeometry width="50" height="50" relative="1" as="geometry">
            <mxPoint x="135" y="700" as="sourcePoint" />
            <mxPoint x="134.5" y="640" as="targetPoint" />
          </mxGeometry>
        </mxCell>
        <mxCell id="TdQm5-RAgIFoS7tEMjqO-34" value="" style="endArrow=none;dashed=1;html=1;rounded=0;" edge="1" parent="1">
          <mxGeometry width="50" height="50" relative="1" as="geometry">
            <mxPoint x="390" y="320" as="sourcePoint" />
            <mxPoint x="390.5" y="270" as="targetPoint" />
          </mxGeometry>
        </mxCell>
        <mxCell id="TdQm5-RAgIFoS7tEMjqO-35" value="" style="endArrow=none;dashed=1;html=1;rounded=0;" edge="1" parent="1">
          <mxGeometry width="50" height="50" relative="1" as="geometry">
            <mxPoint x="390" y="430" as="sourcePoint" />
            <mxPoint x="390.5" y="390" as="targetPoint" />
          </mxGeometry>
        </mxCell>
        <mxCell id="TdQm5-RAgIFoS7tEMjqO-36" value="" style="endArrow=none;dashed=1;html=1;rounded=0;" edge="1" parent="1">
          <mxGeometry width="50" height="50" relative="1" as="geometry">
            <mxPoint x="390.5" y="570" as="sourcePoint" />
            <mxPoint x="390" y="498" as="targetPoint" />
          </mxGeometry>
        </mxCell>
        <mxCell id="TdQm5-RAgIFoS7tEMjqO-37" value="" style="endArrow=none;dashed=1;html=1;rounded=0;" edge="1" parent="1">
          <mxGeometry width="50" height="50" relative="1" as="geometry">
            <mxPoint x="390.5" y="700" as="sourcePoint" />
            <mxPoint x="390" y="640" as="targetPoint" />
          </mxGeometry>
        </mxCell>
        <mxCell id="TdQm5-RAgIFoS7tEMjqO-44" style="edgeStyle=orthogonalEdgeStyle;rounded=0;orthogonalLoop=1;jettySize=auto;html=1;exitX=0;exitY=0;exitDx=0;exitDy=0;" edge="1" parent="1">
          <mxGeometry relative="1" as="geometry">
            <mxPoint x="770" y="744.76" as="targetPoint" />
            <mxPoint x="731" y="744.7599999999999" as="sourcePoint" />
          </mxGeometry>
        </mxCell>
        <mxCell id="TdQm5-RAgIFoS7tEMjqO-48" style="edgeStyle=orthogonalEdgeStyle;rounded=0;orthogonalLoop=1;jettySize=auto;html=1;exitX=0.75;exitY=1;exitDx=0;exitDy=0;" edge="1" parent="1" source="TdQm5-RAgIFoS7tEMjqO-38">
          <mxGeometry relative="1" as="geometry">
            <mxPoint x="420" y="970" as="targetPoint" />
            <Array as="points">
              <mxPoint x="701" y="970" />
              <mxPoint x="561" y="970" />
              <mxPoint x="420" y="971" />
            </Array>
          </mxGeometry>
        </mxCell>
        <mxCell id="TdQm5-RAgIFoS7tEMjqO-49" value="User sign-up accepted" style="edgeLabel;html=1;align=center;verticalAlign=middle;resizable=0;points=[];" vertex="1" connectable="0" parent="TdQm5-RAgIFoS7tEMjqO-48">
          <mxGeometry x="0.1579" relative="1" as="geometry">
            <mxPoint as="offset" />
          </mxGeometry>
        </mxCell>
        <mxCell id="TdQm5-RAgIFoS7tEMjqO-59" style="edgeStyle=orthogonalEdgeStyle;rounded=0;orthogonalLoop=1;jettySize=auto;html=1;exitX=1;exitY=1;exitDx=0;exitDy=0;entryX=0.25;entryY=0;entryDx=0;entryDy=0;" edge="1" parent="1" source="TdQm5-RAgIFoS7tEMjqO-38" target="TdQm5-RAgIFoS7tEMjqO-58">
          <mxGeometry relative="1" as="geometry" />
        </mxCell>
        <mxCell id="TdQm5-RAgIFoS7tEMjqO-61" value="User Signup Rejected" style="edgeLabel;html=1;align=center;verticalAlign=middle;resizable=0;points=[];" vertex="1" connectable="0" parent="TdQm5-RAgIFoS7tEMjqO-59">
          <mxGeometry x="0.1225" relative="1" as="geometry">
            <mxPoint x="1" as="offset" />
          </mxGeometry>
        </mxCell>
        <mxCell id="TdQm5-RAgIFoS7tEMjqO-38" value="" style="rounded=0;whiteSpace=wrap;html=1;rotation=90;fillColor=#008a00;fontColor=#ffffff;strokeColor=#005700;" vertex="1" parent="1">
          <mxGeometry x="524.25" y="909.75" width="383.5" height="30" as="geometry" />
        </mxCell>
        <mxCell id="TdQm5-RAgIFoS7tEMjqO-45" value="" style="edgeStyle=orthogonalEdgeStyle;rounded=0;orthogonalLoop=1;jettySize=auto;html=1;" edge="1" parent="1" source="TdQm5-RAgIFoS7tEMjqO-42" target="TdQm5-RAgIFoS7tEMjqO-43">
          <mxGeometry relative="1" as="geometry" />
        </mxCell>
        <mxCell id="TdQm5-RAgIFoS7tEMjqO-42" value="Validate Email and password" style="text;html=1;align=center;verticalAlign=middle;resizable=0;points=[];autosize=1;strokeColor=none;fillColor=none;" vertex="1" parent="1">
          <mxGeometry x="770" y="730" width="180" height="30" as="geometry" />
        </mxCell>
        <mxCell id="TdQm5-RAgIFoS7tEMjqO-46" style="edgeStyle=orthogonalEdgeStyle;rounded=0;orthogonalLoop=1;jettySize=auto;html=1;" edge="1" parent="1" source="TdQm5-RAgIFoS7tEMjqO-43">
          <mxGeometry relative="1" as="geometry">
            <mxPoint x="732" y="853" as="targetPoint" />
            <Array as="points">
              <mxPoint x="860" y="853" />
            </Array>
          </mxGeometry>
        </mxCell>
        <mxCell id="TdQm5-RAgIFoS7tEMjqO-43" value="Check email in the database if the user&lt;div&gt;is existed or&amp;nbsp;&lt;span style=&quot;background-color: transparent; color: light-dark(rgb(0, 0, 0), rgb(255, 255, 255));&quot;&gt;not&lt;/span&gt;&lt;/div&gt;" style="text;html=1;align=center;verticalAlign=middle;resizable=0;points=[];autosize=1;strokeColor=none;fillColor=none;" vertex="1" parent="1">
          <mxGeometry x="745" y="793" width="230" height="40" as="geometry" />
        </mxCell>
        <mxCell id="TdQm5-RAgIFoS7tEMjqO-52" style="edgeStyle=orthogonalEdgeStyle;rounded=0;orthogonalLoop=1;jettySize=auto;html=1;" edge="1" parent="1">
          <mxGeometry relative="1" as="geometry">
            <mxPoint x="550" y="1030" as="targetPoint" />
            <mxPoint x="410" y="999" as="sourcePoint" />
          </mxGeometry>
        </mxCell>
        <mxCell id="TdQm5-RAgIFoS7tEMjqO-54" style="edgeStyle=orthogonalEdgeStyle;rounded=0;orthogonalLoop=1;jettySize=auto;html=1;entryX=0.75;entryY=0;entryDx=0;entryDy=0;" edge="1" parent="1" target="TdQm5-RAgIFoS7tEMjqO-47">
          <mxGeometry relative="1" as="geometry">
            <mxPoint x="550" y="1027" as="sourcePoint" />
          </mxGeometry>
        </mxCell>
        <mxCell id="TdQm5-RAgIFoS7tEMjqO-55" value="Redirect to&amp;nbsp;&lt;div&gt;targeted&lt;div&gt;page&lt;/div&gt;&lt;/div&gt;" style="edgeLabel;html=1;align=center;verticalAlign=middle;resizable=0;points=[];" vertex="1" connectable="0" parent="TdQm5-RAgIFoS7tEMjqO-54">
          <mxGeometry x="0.0846" y="1" relative="1" as="geometry">
            <mxPoint x="1" as="offset" />
          </mxGeometry>
        </mxCell>
        <mxCell id="TdQm5-RAgIFoS7tEMjqO-47" value="" style="rounded=0;whiteSpace=wrap;html=1;rotation=90;fillColor=#a20025;fontColor=#ffffff;strokeColor=#6F0000;" vertex="1" parent="1">
          <mxGeometry x="336.25" y="980" width="112.5" height="30" as="geometry" />
        </mxCell>
        <mxCell id="TdQm5-RAgIFoS7tEMjqO-51" value="" style="endArrow=none;html=1;rounded=0;" edge="1" parent="1">
          <mxGeometry width="50" height="50" relative="1" as="geometry">
            <mxPoint y="866" as="sourcePoint" />
            <mxPoint x="1141.88232421875" y="863" as="targetPoint" />
          </mxGeometry>
        </mxCell>
        <mxCell id="TdQm5-RAgIFoS7tEMjqO-56" value="" style="endArrow=none;html=1;rounded=0;" edge="1" parent="1">
          <mxGeometry width="50" height="50" relative="1" as="geometry">
            <mxPoint y="1073" as="sourcePoint" />
            <mxPoint x="1141.88232421875" y="1070" as="targetPoint" />
          </mxGeometry>
        </mxCell>
        <mxCell id="TdQm5-RAgIFoS7tEMjqO-63" style="edgeStyle=orthogonalEdgeStyle;rounded=0;orthogonalLoop=1;jettySize=auto;html=1;exitX=0.5;exitY=1;exitDx=0;exitDy=0;" edge="1" parent="1" source="TdQm5-RAgIFoS7tEMjqO-58" target="TdQm5-RAgIFoS7tEMjqO-62">
          <mxGeometry relative="1" as="geometry" />
        </mxCell>
        <mxCell id="TdQm5-RAgIFoS7tEMjqO-65" value="&lt;div&gt;Clear the email and&amp;nbsp;&lt;/div&gt;&lt;div&gt;password and&lt;/div&gt;&lt;div&gt;&amp;nbsp;inform the issue to the user&amp;nbsp;&lt;/div&gt;" style="edgeLabel;html=1;align=center;verticalAlign=middle;resizable=0;points=[];" vertex="1" connectable="0" parent="TdQm5-RAgIFoS7tEMjqO-63">
          <mxGeometry x="0.0342" y="-2" relative="1" as="geometry">
            <mxPoint as="offset" />
          </mxGeometry>
        </mxCell>
        <mxCell id="TdQm5-RAgIFoS7tEMjqO-58" value="" style="rounded=0;whiteSpace=wrap;html=1;rotation=90;fillColor=#a20025;fontColor=#ffffff;strokeColor=#6F0000;" vertex="1" parent="1">
          <mxGeometry x="337" y="1170" width="112.5" height="30" as="geometry" />
        </mxCell>
        <mxCell id="TdQm5-RAgIFoS7tEMjqO-62" value="" style="rounded=0;whiteSpace=wrap;html=1;rotation=90;" vertex="1" parent="1">
          <mxGeometry x="102.5" y="1170" width="65" height="30" as="geometry" />
        </mxCell>
        <mxCell id="TdQm5-RAgIFoS7tEMjqO-66" value="" style="endArrow=none;dashed=1;html=1;dashPattern=1 3;strokeWidth=2;rounded=0;exitX=0;exitY=0.5;exitDx=0;exitDy=0;entryX=0.5;entryY=1;entryDx=0;entryDy=0;" edge="1" parent="1" source="TdQm5-RAgIFoS7tEMjqO-38" target="TdQm5-RAgIFoS7tEMjqO-2">
          <mxGeometry width="50" height="50" relative="1" as="geometry">
            <mxPoint x="679.17" y="270" as="sourcePoint" />
            <mxPoint x="679.17" y="130" as="targetPoint" />
          </mxGeometry>
        </mxCell>
        <mxCell id="TdQm5-RAgIFoS7tEMjqO-67" value="" style="endArrow=none;dashed=1;html=1;rounded=0;entryX=1;entryY=0.5;entryDx=0;entryDy=0;exitX=0;exitY=0.5;exitDx=0;exitDy=0;" edge="1" parent="1" source="TdQm5-RAgIFoS7tEMjqO-62" target="TdQm5-RAgIFoS7tEMjqO-30">
          <mxGeometry width="50" height="50" relative="1" as="geometry">
            <mxPoint x="135" y="827" as="sourcePoint" />
            <mxPoint x="134.5" y="767" as="targetPoint" />
          </mxGeometry>
        </mxCell>
        <mxCell id="TdQm5-RAgIFoS7tEMjqO-68" value="" style="endArrow=none;dashed=1;html=1;dashPattern=1 3;strokeWidth=2;rounded=0;entryX=1;entryY=0.5;entryDx=0;entryDy=0;exitX=0;exitY=0.5;exitDx=0;exitDy=0;" edge="1" parent="1" source="TdQm5-RAgIFoS7tEMjqO-47" target="TdQm5-RAgIFoS7tEMjqO-31">
          <mxGeometry width="50" height="50" relative="1" as="geometry">
            <mxPoint x="410" y="860" as="sourcePoint" />
            <mxPoint x="460" y="810" as="targetPoint" />
          </mxGeometry>
        </mxCell>
        <mxCell id="TdQm5-RAgIFoS7tEMjqO-69" value="" style="endArrow=none;dashed=1;html=1;dashPattern=1 3;strokeWidth=2;rounded=0;entryX=1;entryY=0.5;entryDx=0;entryDy=0;exitX=0;exitY=0.5;exitDx=0;exitDy=0;" edge="1" parent="1" source="TdQm5-RAgIFoS7tEMjqO-58" target="TdQm5-RAgIFoS7tEMjqO-47">
          <mxGeometry width="50" height="50" relative="1" as="geometry">
            <mxPoint x="280" y="1100" as="sourcePoint" />
            <mxPoint x="330" y="1050" as="targetPoint" />
          </mxGeometry>
        </mxCell>
        <mxCell id="TdQm5-RAgIFoS7tEMjqO-70" value="" style="endArrow=none;dashed=1;html=1;dashPattern=1 3;strokeWidth=2;rounded=0;entryX=1;entryY=0.5;entryDx=0;entryDy=0;" edge="1" parent="1" target="TdQm5-RAgIFoS7tEMjqO-58">
          <mxGeometry width="50" height="50" relative="1" as="geometry">
            <mxPoint x="393" y="1300" as="sourcePoint" />
            <mxPoint x="370" y="1300" as="targetPoint" />
          </mxGeometry>
        </mxCell>
        <mxCell id="TdQm5-RAgIFoS7tEMjqO-71" value="" style="endArrow=none;dashed=1;html=1;dashPattern=1 3;strokeWidth=2;rounded=0;entryX=1;entryY=0.5;entryDx=0;entryDy=0;" edge="1" parent="1" target="TdQm5-RAgIFoS7tEMjqO-62">
          <mxGeometry width="50" height="50" relative="1" as="geometry">
            <mxPoint x="135" y="1290" as="sourcePoint" />
            <mxPoint x="130" y="1241" as="targetPoint" />
          </mxGeometry>
        </mxCell>
        <mxCell id="TdQm5-RAgIFoS7tEMjqO-72" value="" style="endArrow=none;dashed=1;html=1;dashPattern=1 3;strokeWidth=2;rounded=0;entryX=1;entryY=0.5;entryDx=0;entryDy=0;" edge="1" parent="1" target="TdQm5-RAgIFoS7tEMjqO-38">
          <mxGeometry width="50" height="50" relative="1" as="geometry">
            <mxPoint x="716" y="1280" as="sourcePoint" />
            <mxPoint x="750" y="1180" as="targetPoint" />
          </mxGeometry>
        </mxCell>
        <mxCell id="TdQm5-RAgIFoS7tEMjqO-73" value="" style="endArrow=none;dashed=1;html=1;dashPattern=1 3;strokeWidth=2;rounded=0;entryX=0.5;entryY=1;entryDx=0;entryDy=0;exitX=0;exitY=0.5;exitDx=0;exitDy=0;" edge="1" parent="1" source="TdQm5-RAgIFoS7tEMjqO-8" target="TdQm5-RAgIFoS7tEMjqO-1">
          <mxGeometry width="50" height="50" relative="1" as="geometry">
            <mxPoint x="320" y="200" as="sourcePoint" />
            <mxPoint x="370" y="150" as="targetPoint" />
          </mxGeometry>
        </mxCell>
      </root>
    </mxGraphModel>
  </diagram>
</mxfile>
